<mxfile host="app.diagrams.net" modified="2023-07-18T16:16:16.001Z" agent="Mozilla/5.0 (X11; Linux x86_64; rv:109.0) Gecko/20100101 Firefox/111.0" etag="M2Da9lCH3zRMQm0hklwo" version="21.6.2" type="device">
  <diagram name="Page-1" id="Wt_pRepHhm3vvnczkumn">
    <mxGraphModel dx="972" dy="731" grid="1" gridSize="10" guides="1" tooltips="1" connect="1" arrows="1" fold="1" page="1" pageScale="1" pageWidth="850" pageHeight="1100" math="0" shadow="0">
      <root>
        <mxCell id="0" />
        <mxCell id="1" parent="0" />
        <mxCell id="X6kZq9imv9hVyPYv-RO1-1" value="" style="rounded=0;whiteSpace=wrap;html=1;fillColor=#000000;strokeColor=#6c8ebf;" vertex="1" parent="1">
          <mxGeometry x="160" y="80" width="120" height="80" as="geometry" />
        </mxCell>
        <mxCell id="X6kZq9imv9hVyPYv-RO1-2" value="" style="rounded=0;whiteSpace=wrap;html=1;strokeColor=#000000;fillColor=#000000;" vertex="1" parent="1">
          <mxGeometry x="360" y="80" width="120" height="80" as="geometry" />
        </mxCell>
        <mxCell id="X6kZq9imv9hVyPYv-RO1-3" value="" style="rounded=0;whiteSpace=wrap;html=1;fillColor=#000000;" vertex="1" parent="1">
          <mxGeometry x="560" y="80" width="120" height="80" as="geometry" />
        </mxCell>
        <mxCell id="X6kZq9imv9hVyPYv-RO1-4" value="Op 1" style="text;html=1;strokeColor=none;fillColor=#1BA1E2;align=center;verticalAlign=middle;whiteSpace=wrap;rounded=0;" vertex="1" parent="1">
          <mxGeometry x="60" y="105" width="60" height="30" as="geometry" />
        </mxCell>
        <mxCell id="X6kZq9imv9hVyPYv-RO1-71" style="edgeStyle=orthogonalEdgeStyle;rounded=0;orthogonalLoop=1;jettySize=auto;html=1;exitX=0;exitY=0.5;exitDx=0;exitDy=0;entryX=0;entryY=0.25;entryDx=0;entryDy=0;" edge="1" parent="1" source="X6kZq9imv9hVyPYv-RO1-5" target="X6kZq9imv9hVyPYv-RO1-33">
          <mxGeometry relative="1" as="geometry" />
        </mxCell>
        <mxCell id="X6kZq9imv9hVyPYv-RO1-5" value="" style="rounded=0;whiteSpace=wrap;html=1;fillColor=#1ba1e2;strokeColor=#006EAF;fontColor=#ffffff;" vertex="1" parent="1">
          <mxGeometry x="160" y="100" width="120" height="60" as="geometry" />
        </mxCell>
        <mxCell id="X6kZq9imv9hVyPYv-RO1-79" style="edgeStyle=orthogonalEdgeStyle;rounded=0;orthogonalLoop=1;jettySize=auto;html=1;exitX=0;exitY=0.5;exitDx=0;exitDy=0;entryX=0;entryY=0.5;entryDx=0;entryDy=0;" edge="1" parent="1" source="X6kZq9imv9hVyPYv-RO1-6" target="X6kZq9imv9hVyPYv-RO1-69">
          <mxGeometry relative="1" as="geometry" />
        </mxCell>
        <mxCell id="X6kZq9imv9hVyPYv-RO1-6" value="" style="rounded=0;whiteSpace=wrap;html=1;fillColor=#1ba1e2;strokeColor=#006EAF;fontColor=#ffffff;" vertex="1" parent="1">
          <mxGeometry x="360" y="120" width="120" height="40" as="geometry" />
        </mxCell>
        <mxCell id="X6kZq9imv9hVyPYv-RO1-84" style="edgeStyle=orthogonalEdgeStyle;rounded=0;orthogonalLoop=1;jettySize=auto;html=1;exitX=0;exitY=0.5;exitDx=0;exitDy=0;entryX=0;entryY=0.5;entryDx=0;entryDy=0;" edge="1" parent="1" source="X6kZq9imv9hVyPYv-RO1-7" target="X6kZq9imv9hVyPYv-RO1-35">
          <mxGeometry relative="1" as="geometry" />
        </mxCell>
        <mxCell id="X6kZq9imv9hVyPYv-RO1-7" value="" style="rounded=0;whiteSpace=wrap;html=1;fillColor=#1ba1e2;strokeColor=#006EAF;fontColor=#ffffff;" vertex="1" parent="1">
          <mxGeometry x="560" y="120" width="120" height="40" as="geometry" />
        </mxCell>
        <mxCell id="X6kZq9imv9hVyPYv-RO1-8" value="Op 2" style="text;html=1;strokeColor=#005700;fillColor=#008a00;align=center;verticalAlign=middle;whiteSpace=wrap;rounded=0;fontColor=#ffffff;" vertex="1" parent="1">
          <mxGeometry x="60" y="220" width="60" height="30" as="geometry" />
        </mxCell>
        <mxCell id="X6kZq9imv9hVyPYv-RO1-10" value="" style="rounded=0;whiteSpace=wrap;html=1;strokeColor=#000000;fillColor=#000000;" vertex="1" parent="1">
          <mxGeometry x="360" y="200" width="120" height="80" as="geometry" />
        </mxCell>
        <mxCell id="X6kZq9imv9hVyPYv-RO1-9" value="" style="rounded=0;whiteSpace=wrap;html=1;fillColor=#000000;strokeColor=#6c8ebf;" vertex="1" parent="1">
          <mxGeometry x="160" y="200" width="120" height="80" as="geometry" />
        </mxCell>
        <mxCell id="X6kZq9imv9hVyPYv-RO1-11" value="" style="rounded=0;whiteSpace=wrap;html=1;fillColor=#000000;" vertex="1" parent="1">
          <mxGeometry x="560" y="200" width="120" height="80" as="geometry" />
        </mxCell>
        <mxCell id="X6kZq9imv9hVyPYv-RO1-21" value="SPM 1" style="text;html=1;strokeColor=none;fillColor=none;align=center;verticalAlign=middle;whiteSpace=wrap;rounded=0;" vertex="1" parent="1">
          <mxGeometry x="190" y="40" width="60" height="30" as="geometry" />
        </mxCell>
        <mxCell id="X6kZq9imv9hVyPYv-RO1-22" value="SPM 2" style="text;html=1;strokeColor=none;fillColor=none;align=center;verticalAlign=middle;whiteSpace=wrap;rounded=0;" vertex="1" parent="1">
          <mxGeometry x="380" y="40" width="60" height="30" as="geometry" />
        </mxCell>
        <mxCell id="X6kZq9imv9hVyPYv-RO1-23" value="SPM 3" style="text;html=1;strokeColor=none;fillColor=none;align=center;verticalAlign=middle;whiteSpace=wrap;rounded=0;" vertex="1" parent="1">
          <mxGeometry x="590" y="40" width="60" height="30" as="geometry" />
        </mxCell>
        <mxCell id="X6kZq9imv9hVyPYv-RO1-27" value="&lt;div&gt;Input&lt;/div&gt;" style="text;html=1;strokeColor=none;fillColor=default;align=center;verticalAlign=middle;whiteSpace=wrap;rounded=0;" vertex="1" parent="1">
          <mxGeometry x="190" y="115" width="60" height="30" as="geometry" />
        </mxCell>
        <mxCell id="X6kZq9imv9hVyPYv-RO1-28" value="&lt;div&gt;Input&lt;/div&gt;" style="text;html=1;strokeColor=none;fillColor=default;align=center;verticalAlign=middle;whiteSpace=wrap;rounded=0;" vertex="1" parent="1">
          <mxGeometry x="390" y="125" width="60" height="30" as="geometry" />
        </mxCell>
        <mxCell id="X6kZq9imv9hVyPYv-RO1-29" value="&lt;div&gt;Output&lt;/div&gt;" style="text;html=1;strokeColor=none;fillColor=default;align=center;verticalAlign=middle;whiteSpace=wrap;rounded=0;" vertex="1" parent="1">
          <mxGeometry x="590" y="125" width="60" height="30" as="geometry" />
        </mxCell>
        <mxCell id="X6kZq9imv9hVyPYv-RO1-80" style="edgeStyle=orthogonalEdgeStyle;rounded=0;orthogonalLoop=1;jettySize=auto;html=1;exitX=0;exitY=0.5;exitDx=0;exitDy=0;entryX=0;entryY=0.25;entryDx=0;entryDy=0;" edge="1" parent="1" source="X6kZq9imv9hVyPYv-RO1-34" target="X6kZq9imv9hVyPYv-RO1-82">
          <mxGeometry relative="1" as="geometry">
            <mxPoint x="360" y="380" as="targetPoint" />
            <Array as="points">
              <mxPoint x="320" y="220" />
              <mxPoint x="320" y="348" />
            </Array>
          </mxGeometry>
        </mxCell>
        <mxCell id="X6kZq9imv9hVyPYv-RO1-34" value="" style="rounded=0;whiteSpace=wrap;html=1;fillColor=#008a00;fontColor=#ffffff;strokeColor=#005700;" vertex="1" parent="1">
          <mxGeometry x="360" y="200" width="120" height="40" as="geometry" />
        </mxCell>
        <mxCell id="X6kZq9imv9hVyPYv-RO1-85" style="edgeStyle=orthogonalEdgeStyle;rounded=0;orthogonalLoop=1;jettySize=auto;html=1;entryX=0;entryY=0.5;entryDx=0;entryDy=0;" edge="1" parent="1" source="X6kZq9imv9hVyPYv-RO1-35" target="X6kZq9imv9hVyPYv-RO1-55">
          <mxGeometry relative="1" as="geometry">
            <Array as="points">
              <mxPoint x="540" y="260" />
              <mxPoint x="540" y="380" />
            </Array>
          </mxGeometry>
        </mxCell>
        <mxCell id="X6kZq9imv9hVyPYv-RO1-35" value="" style="rounded=0;whiteSpace=wrap;html=1;fillColor=#1ba1e2;strokeColor=#006EAF;fontColor=#ffffff;" vertex="1" parent="1">
          <mxGeometry x="560" y="240" width="120" height="40" as="geometry" />
        </mxCell>
        <mxCell id="X6kZq9imv9hVyPYv-RO1-76" style="edgeStyle=orthogonalEdgeStyle;rounded=0;orthogonalLoop=1;jettySize=auto;html=1;exitX=0;exitY=0.5;exitDx=0;exitDy=0;entryX=0;entryY=0.25;entryDx=0;entryDy=0;" edge="1" parent="1" source="X6kZq9imv9hVyPYv-RO1-33" target="X6kZq9imv9hVyPYv-RO1-56">
          <mxGeometry relative="1" as="geometry" />
        </mxCell>
        <mxCell id="X6kZq9imv9hVyPYv-RO1-33" value="" style="rounded=0;whiteSpace=wrap;html=1;fillColor=#008a00;fontColor=#ffffff;strokeColor=#005700;" vertex="1" parent="1">
          <mxGeometry x="160" y="240" width="120" height="40" as="geometry" />
        </mxCell>
        <mxCell id="X6kZq9imv9hVyPYv-RO1-37" value="&lt;div&gt;Output&lt;/div&gt;" style="text;html=1;strokeColor=none;fillColor=default;align=center;verticalAlign=middle;whiteSpace=wrap;rounded=0;" vertex="1" parent="1">
          <mxGeometry x="390" y="205" width="60" height="30" as="geometry" />
        </mxCell>
        <mxCell id="X6kZq9imv9hVyPYv-RO1-38" value="&lt;div&gt;Input&lt;/div&gt;" style="text;html=1;strokeColor=none;fillColor=default;align=center;verticalAlign=middle;whiteSpace=wrap;rounded=0;" vertex="1" parent="1">
          <mxGeometry x="190" y="250" width="60" height="30" as="geometry" />
        </mxCell>
        <mxCell id="X6kZq9imv9hVyPYv-RO1-49" value="Op 3" style="text;html=1;strokeColor=#C73500;fillColor=#fa6800;align=center;verticalAlign=middle;whiteSpace=wrap;rounded=0;fontColor=#000000;" vertex="1" parent="1">
          <mxGeometry x="60" y="340" width="60" height="30" as="geometry" />
        </mxCell>
        <mxCell id="X6kZq9imv9hVyPYv-RO1-50" value="" style="rounded=0;whiteSpace=wrap;html=1;strokeColor=#000000;fillColor=#000000;" vertex="1" parent="1">
          <mxGeometry x="360" y="320" width="120" height="80" as="geometry" />
        </mxCell>
        <mxCell id="X6kZq9imv9hVyPYv-RO1-51" value="" style="rounded=0;whiteSpace=wrap;html=1;fillColor=#000000;strokeColor=#6c8ebf;" vertex="1" parent="1">
          <mxGeometry x="160" y="320" width="120" height="80" as="geometry" />
        </mxCell>
        <mxCell id="X6kZq9imv9hVyPYv-RO1-52" value="" style="rounded=0;whiteSpace=wrap;html=1;fillColor=#000000;" vertex="1" parent="1">
          <mxGeometry x="560" y="320" width="120" height="80" as="geometry" />
        </mxCell>
        <mxCell id="X6kZq9imv9hVyPYv-RO1-112" style="edgeStyle=orthogonalEdgeStyle;rounded=0;orthogonalLoop=1;jettySize=auto;html=1;exitX=0;exitY=0.5;exitDx=0;exitDy=0;entryX=0;entryY=0.633;entryDx=0;entryDy=0;entryPerimeter=0;" edge="1" parent="1" source="X6kZq9imv9hVyPYv-RO1-55" target="X6kZq9imv9hVyPYv-RO1-111">
          <mxGeometry relative="1" as="geometry" />
        </mxCell>
        <mxCell id="X6kZq9imv9hVyPYv-RO1-55" value="" style="rounded=0;whiteSpace=wrap;html=1;fillColor=#1ba1e2;strokeColor=#006EAF;fontColor=#ffffff;" vertex="1" parent="1">
          <mxGeometry x="560" y="360" width="120" height="40" as="geometry" />
        </mxCell>
        <mxCell id="X6kZq9imv9hVyPYv-RO1-105" style="edgeStyle=orthogonalEdgeStyle;rounded=0;orthogonalLoop=1;jettySize=auto;html=1;exitX=0;exitY=0.75;exitDx=0;exitDy=0;entryX=0;entryY=0.5;entryDx=0;entryDy=0;" edge="1" parent="1" source="X6kZq9imv9hVyPYv-RO1-56" target="X6kZq9imv9hVyPYv-RO1-103">
          <mxGeometry relative="1" as="geometry" />
        </mxCell>
        <mxCell id="X6kZq9imv9hVyPYv-RO1-56" value="" style="rounded=0;whiteSpace=wrap;html=1;fillColor=#fa6800;fontColor=#000000;strokeColor=#C73500;" vertex="1" parent="1">
          <mxGeometry x="160" y="360" width="120" height="40" as="geometry" />
        </mxCell>
        <mxCell id="X6kZq9imv9hVyPYv-RO1-59" value="&lt;div&gt;Input&lt;/div&gt;" style="text;html=1;strokeColor=none;fillColor=default;align=center;verticalAlign=middle;whiteSpace=wrap;rounded=0;" vertex="1" parent="1">
          <mxGeometry x="590" y="365" width="60" height="30" as="geometry" />
        </mxCell>
        <mxCell id="X6kZq9imv9hVyPYv-RO1-61" value="&lt;div&gt;Input&lt;/div&gt;" style="text;html=1;strokeColor=none;fillColor=default;align=center;verticalAlign=middle;whiteSpace=wrap;rounded=0;" vertex="1" parent="1">
          <mxGeometry x="190" y="365" width="60" height="30" as="geometry" />
        </mxCell>
        <mxCell id="X6kZq9imv9hVyPYv-RO1-122" style="edgeStyle=orthogonalEdgeStyle;rounded=0;orthogonalLoop=1;jettySize=auto;html=1;exitX=1;exitY=0.5;exitDx=0;exitDy=0;entryX=1;entryY=0.75;entryDx=0;entryDy=0;" edge="1" parent="1" source="X6kZq9imv9hVyPYv-RO1-69" target="X6kZq9imv9hVyPYv-RO1-82">
          <mxGeometry relative="1" as="geometry" />
        </mxCell>
        <mxCell id="X6kZq9imv9hVyPYv-RO1-69" value="" style="rounded=0;whiteSpace=wrap;html=1;fillColor=#1ba1e2;strokeColor=#006EAF;fontColor=#ffffff;" vertex="1" parent="1">
          <mxGeometry x="360" y="240" width="120" height="40" as="geometry" />
        </mxCell>
        <mxCell id="X6kZq9imv9hVyPYv-RO1-73" value="" style="shape=mxgraph.sysml.x;" vertex="1" parent="1">
          <mxGeometry x="120" y="160" width="40" height="40" as="geometry" />
        </mxCell>
        <mxCell id="X6kZq9imv9hVyPYv-RO1-78" value="" style="shape=mxgraph.sysml.x;" vertex="1" parent="1">
          <mxGeometry x="120" y="290" width="40" height="40" as="geometry" />
        </mxCell>
        <mxCell id="X6kZq9imv9hVyPYv-RO1-81" value="" style="shape=mxgraph.sysml.x;" vertex="1" parent="1">
          <mxGeometry x="300" y="285" width="40" height="40" as="geometry" />
        </mxCell>
        <mxCell id="X6kZq9imv9hVyPYv-RO1-101" style="edgeStyle=orthogonalEdgeStyle;rounded=0;orthogonalLoop=1;jettySize=auto;html=1;exitX=0;exitY=0.75;exitDx=0;exitDy=0;entryX=0;entryY=0.5;entryDx=0;entryDy=0;" edge="1" parent="1" source="X6kZq9imv9hVyPYv-RO1-82" target="X6kZq9imv9hVyPYv-RO1-96">
          <mxGeometry relative="1" as="geometry" />
        </mxCell>
        <mxCell id="X6kZq9imv9hVyPYv-RO1-82" value="" style="rounded=0;whiteSpace=wrap;html=1;fillColor=#fa6800;fontColor=#000000;strokeColor=#C73500;" vertex="1" parent="1">
          <mxGeometry x="360" y="330" width="120" height="70" as="geometry" />
        </mxCell>
        <mxCell id="X6kZq9imv9hVyPYv-RO1-86" value="Op 4" style="text;html=1;strokeColor=#A50040;fillColor=#d80073;align=center;verticalAlign=middle;whiteSpace=wrap;rounded=0;fontColor=#ffffff;" vertex="1" parent="1">
          <mxGeometry x="60" y="460" width="60" height="30" as="geometry" />
        </mxCell>
        <mxCell id="X6kZq9imv9hVyPYv-RO1-87" value="" style="rounded=0;whiteSpace=wrap;html=1;strokeColor=#000000;fillColor=#000000;" vertex="1" parent="1">
          <mxGeometry x="360" y="440" width="120" height="80" as="geometry" />
        </mxCell>
        <mxCell id="X6kZq9imv9hVyPYv-RO1-88" value="" style="rounded=0;whiteSpace=wrap;html=1;fillColor=#000000;strokeColor=#6c8ebf;" vertex="1" parent="1">
          <mxGeometry x="160" y="440" width="120" height="80" as="geometry" />
        </mxCell>
        <mxCell id="X6kZq9imv9hVyPYv-RO1-89" value="" style="rounded=0;whiteSpace=wrap;html=1;fillColor=#000000;" vertex="1" parent="1">
          <mxGeometry x="560" y="440" width="120" height="80" as="geometry" />
        </mxCell>
        <mxCell id="X6kZq9imv9hVyPYv-RO1-91" style="edgeStyle=orthogonalEdgeStyle;rounded=0;orthogonalLoop=1;jettySize=auto;html=1;exitX=0.5;exitY=0;exitDx=0;exitDy=0;entryX=0.75;entryY=1;entryDx=0;entryDy=0;" edge="1" parent="1">
          <mxGeometry relative="1" as="geometry">
            <mxPoint x="235" y="440" as="targetPoint" />
            <mxPoint x="220" y="470" as="sourcePoint" />
          </mxGeometry>
        </mxCell>
        <mxCell id="X6kZq9imv9hVyPYv-RO1-92" style="edgeStyle=orthogonalEdgeStyle;rounded=0;orthogonalLoop=1;jettySize=auto;html=1;exitX=0.5;exitY=0;exitDx=0;exitDy=0;entryX=0.5;entryY=0;entryDx=0;entryDy=0;" edge="1" parent="1" target="X6kZq9imv9hVyPYv-RO1-88">
          <mxGeometry relative="1" as="geometry">
            <mxPoint x="220" y="470" as="sourcePoint" />
          </mxGeometry>
        </mxCell>
        <mxCell id="X6kZq9imv9hVyPYv-RO1-96" value="" style="rounded=0;whiteSpace=wrap;html=1;fillColor=#fa6800;fontColor=#000000;strokeColor=#C73500;" vertex="1" parent="1">
          <mxGeometry x="360" y="450" width="120" height="70" as="geometry" />
        </mxCell>
        <mxCell id="X6kZq9imv9hVyPYv-RO1-103" value="" style="rounded=0;whiteSpace=wrap;html=1;fillColor=#008a00;fontColor=#ffffff;strokeColor=#005700;" vertex="1" parent="1">
          <mxGeometry x="160" y="470" width="120" height="50" as="geometry" />
        </mxCell>
        <mxCell id="X6kZq9imv9hVyPYv-RO1-106" value="" style="shape=mxgraph.sysml.x;" vertex="1" parent="1">
          <mxGeometry x="120" y="410" width="40" height="40" as="geometry" />
        </mxCell>
        <mxCell id="X6kZq9imv9hVyPYv-RO1-110" value="" style="shape=mxgraph.sysml.x;" vertex="1" parent="1">
          <mxGeometry x="520" y="410" width="40" height="40" as="geometry" />
        </mxCell>
        <mxCell id="X6kZq9imv9hVyPYv-RO1-111" value="" style="rounded=0;whiteSpace=wrap;html=1;fillColor=#d80073;fontColor=#ffffff;strokeColor=#A50040;" vertex="1" parent="1">
          <mxGeometry x="560" y="460" width="120" height="60" as="geometry" />
        </mxCell>
        <mxCell id="X6kZq9imv9hVyPYv-RO1-113" value="&lt;div&gt;Input&lt;/div&gt;" style="text;html=1;strokeColor=none;fillColor=default;align=center;verticalAlign=middle;whiteSpace=wrap;rounded=0;" vertex="1" parent="1">
          <mxGeometry x="590" y="245" width="60" height="30" as="geometry" />
        </mxCell>
        <mxCell id="X6kZq9imv9hVyPYv-RO1-60" value="Output" style="text;html=1;strokeColor=none;fillColor=default;align=center;verticalAlign=middle;whiteSpace=wrap;rounded=0;" vertex="1" parent="1">
          <mxGeometry x="390" y="365" width="60" height="30" as="geometry" />
        </mxCell>
        <mxCell id="X6kZq9imv9hVyPYv-RO1-116" value="Output" style="text;html=1;strokeColor=none;fillColor=default;align=center;verticalAlign=middle;whiteSpace=wrap;rounded=0;" vertex="1" parent="1">
          <mxGeometry x="590" y="470" width="60" height="30" as="geometry" />
        </mxCell>
        <mxCell id="X6kZq9imv9hVyPYv-RO1-117" value="&lt;div&gt;Input&lt;/div&gt;" style="text;html=1;strokeColor=none;fillColor=default;align=center;verticalAlign=middle;whiteSpace=wrap;rounded=0;" vertex="1" parent="1">
          <mxGeometry x="390" y="475" width="60" height="30" as="geometry" />
        </mxCell>
        <mxCell id="X6kZq9imv9hVyPYv-RO1-118" value="&lt;div&gt;Input&lt;/div&gt;" style="text;html=1;strokeColor=none;fillColor=default;align=center;verticalAlign=middle;whiteSpace=wrap;rounded=0;" vertex="1" parent="1">
          <mxGeometry x="190" y="475" width="60" height="30" as="geometry" />
        </mxCell>
        <mxCell id="X6kZq9imv9hVyPYv-RO1-123" value="" style="shape=mxgraph.sysml.x;" vertex="1" parent="1">
          <mxGeometry x="480" y="290" width="40" height="40" as="geometry" />
        </mxCell>
      </root>
    </mxGraphModel>
  </diagram>
</mxfile>
